<?xml version="1.0" encoding="utf-8"?>
<!-- Generator: Adobe Illustrator 23.0.1, SVG Export Plug-In . SVG Version: 6.00 Build 0)  -->
<svg version="1.1" id="Layer_1" xmlns="http://www.w3.org/2000/svg" xmlns:xlink="http://www.w3.org/1999/xlink" x="0px" y="0px"
	 viewBox="0 0 16 16" style="enable-background:new 0 0 16 16;" xml:space="preserve">
<style type="text/css">
	.st0{fill:#FFFFFF;}
</style>
<path class="st0" d="M10.5,8c0,1.4-1.1,2.5-2.5,2.5S5.5,9.4,5.5,8S6.6,5.5,8,5.5S10.5,6.6,10.5,8z"/>
<path class="st0" d="M0,8c0,0,3-5.5,8-5.5S16,8,16,8s-3,5.5-8,5.5S0,8,0,8z M8,11.5c1.9,0,3.5-1.6,3.5-3.5S9.9,4.5,8,4.5
	S4.5,6.1,4.5,8S6.1,11.5,8,11.5z"/>
</svg>
